<svg height="1374" width="720" xmlns="http://www.w3.org/2000/svg">
<rect height="1374" fill="#555" width="720"></rect>
<text fill="#7f7" font-family="Courier New" font-size="12" xml:space="preserve">
<tspan x="10" y="26">21 megabytes installed</tspan>
<tspan x="10" y="42"></tspan>
<tspan x="10" y="58">node_modules</tspan>
<tspan x="10" y="74">└─┬ datapumps@0.5.0 </tspan>
<tspan x="10" y="90">  ├── bluebird@2.11.0 </tspan>
<tspan x="10" y="106">  ├── coffee-script@1.12.5 </tspan>
<tspan x="10" y="122">  ├─┬ excel4node@0.0.10 </tspan>
<tspan x="10" y="138">  │ ├── image-size@0.3.5 </tspan>
<tspan x="10" y="154">  │ ├─┬ jszip@2.3.0 </tspan>
<tspan x="10" y="170">  │ │ └── pako@0.2.9 </tspan>
<tspan x="10" y="186">  │ ├── mime@1.2.11 </tspan>
<tspan x="10" y="202">  │ └─┬ xmlbuilder@2.2.1 </tspan>
<tspan x="10" y="218">  │   └── lodash-node@2.4.1 </tspan>
<tspan x="10" y="234">  ├─┬ fast-csv@0.5.7 </tspan>
<tspan x="10" y="250">  │ ├─┬ extended@0.0.6 </tspan>
<tspan x="10" y="266">  │ │ └─┬ extender@0.0.10 </tspan>
<tspan x="10" y="282">  │ │   └── declare.js@0.0.8 </tspan>
<tspan x="10" y="298">  │ ├── is-extended@0.0.10 </tspan>
<tspan x="10" y="314">  │ ├─┬ object-extended@0.0.7 </tspan>
<tspan x="10" y="330">  │ │ └─┬ array-extended@0.0.11 </tspan>
<tspan x="10" y="346">  │ │   └── arguments-extended@0.0.3 </tspan>
<tspan x="10" y="362">  │ └─┬ string-extended@0.0.8 </tspan>
<tspan x="10" y="378">  │   └── date-extended@0.0.6 </tspan>
<tspan x="10" y="394">  ├─┬ mongodb@2.2.26 </tspan>
<tspan x="10" y="410">  │ ├── es6-promise@3.2.1 </tspan>
<tspan x="10" y="426">  │ ├─┬ mongodb-core@2.1.10 </tspan>
<tspan x="10" y="442">  │ │ ├── bson@1.0.4 </tspan>
<tspan x="10" y="458">  │ │ └─┬ require_optional@1.0.0 </tspan>
<tspan x="10" y="474">  │ │   ├── resolve-from@2.0.0 </tspan>
<tspan x="10" y="490">  │ │   └── semver@5.3.0 </tspan>
<tspan x="10" y="506">  │ └─┬ readable-stream@2.2.7 </tspan>
<tspan x="10" y="522">  │   ├── buffer-shims@1.0.0 </tspan>
<tspan x="10" y="538">  │   ├── core-util-is@1.0.2 </tspan>
<tspan x="10" y="554">  │   ├── inherits@2.0.3 </tspan>
<tspan x="10" y="570">  │   ├── isarray@1.0.0 </tspan>
<tspan x="10" y="586">  │   ├── process-nextick-args@1.0.7 </tspan>
<tspan x="10" y="602">  │   ├── string_decoder@1.0.0 </tspan>
<tspan x="10" y="618">  │   └── util-deprecate@1.0.2 </tspan>
<tspan x="10" y="634">  ├─┬ mysql@2.5.5 </tspan>
<tspan x="10" y="650">  │ ├── bignumber.js@2.0.0 </tspan>
<tspan x="10" y="666">  │ ├─┬ readable-stream@1.1.14 </tspan>
<tspan x="10" y="682">  │ │ ├── isarray@0.0.1 </tspan>
<tspan x="10" y="698">  │ │ └── string_decoder@0.10.31 </tspan>
<tspan x="10" y="714">  │ └── require-all@1.0.0 </tspan>
<tspan x="10" y="730">  ├─┬ pg@6.1.5 </tspan>
<tspan x="10" y="746">  │ ├── buffer-writer@1.0.1 </tspan>
<tspan x="10" y="762">  │ ├── packet-reader@0.2.0 </tspan>
<tspan x="10" y="778">  │ ├── pg-connection-string@0.1.3 </tspan>
<tspan x="10" y="794">  │ ├─┬ pg-pool@1.7.1 </tspan>
<tspan x="10" y="810">  │ │ ├── generic-pool@2.4.3 </tspan>
<tspan x="10" y="826">  │ │ └── object-assign@4.1.0 </tspan>
<tspan x="10" y="842">  │ ├─┬ pg-types@1.11.0 </tspan>
<tspan x="10" y="858">  │ │ ├── ap@0.2.0 </tspan>
<tspan x="10" y="874">  │ │ ├── postgres-array@1.0.2 </tspan>
<tspan x="10" y="890">  │ │ ├── postgres-bytea@1.0.0 </tspan>
<tspan x="10" y="906">  │ │ ├── postgres-date@1.0.3 </tspan>
<tspan x="10" y="922">  │ │ └─┬ postgres-interval@1.0.2 </tspan>
<tspan x="10" y="938">  │ │   └── xtend@4.0.1 </tspan>
<tspan x="10" y="954">  │ ├─┬ pgpass@1.0.1 </tspan>
<tspan x="10" y="970">  │ │ └─┬ split@1.0.0 </tspan>
<tspan x="10" y="986">  │ │   └── through@2.3.8 </tspan>
<tspan x="10" y="1002">  │ └── semver@4.3.2 </tspan>
<tspan x="10" y="1018">  ├─┬ restler@3.2.2 </tspan>
<tspan x="10" y="1034">  │ ├── iconv-lite@0.2.11 </tspan>
<tspan x="10" y="1050">  │ ├── qs@0.6.6 </tspan>
<tspan x="10" y="1066">  │ ├─┬ xml2js@0.4.0 </tspan>
<tspan x="10" y="1082">  │ │ └── sax@0.5.8 </tspan>
<tspan x="10" y="1098">  │ └── yaml@0.2.3 </tspan>
<tspan x="10" y="1114">  └─┬ xlsx@0.7.12 </tspan>
<tspan x="10" y="1130">    ├─┬ adler-32@1.0.0 </tspan>
<tspan x="10" y="1146">    │ ├─┬ concat-stream@1.6.0 </tspan>
<tspan x="10" y="1162">    │ │ └── typedarray@0.0.6 </tspan>
<tspan x="10" y="1178">    │ ├── exit-on-epipe@1.0.0 </tspan>
<tspan x="10" y="1194">    │ └── printj@1.0.0 </tspan>
<tspan x="10" y="1210">    ├── cfb@0.11.1 </tspan>
<tspan x="10" y="1226">    ├─┬ codepage@1.3.8 </tspan>
<tspan x="10" y="1242">    │ └── voc@0.5.0 </tspan>
<tspan x="10" y="1258">    ├─┬ commander@2.9.0 </tspan>
<tspan x="10" y="1274">    │ └── graceful-readlink@1.0.1 </tspan>
<tspan x="10" y="1290">    ├── crc-32@1.0.1 </tspan>
<tspan x="10" y="1306">    ├── jszip@2.4.0 </tspan>
<tspan x="10" y="1322">    └─┬ ssf@0.8.2 </tspan>
<tspan x="10" y="1338">      ├── colors@0.6.2 </tspan>
<tspan x="10" y="1354">      └── frac@0.3.1</tspan>
</text>
</svg>
